<svg xmlns="http://www.w3.org/2000/svg" xml:space="preserve" width="1500" height="156" data-id="lg_YQ2aXUNbBexBRJ3SV2" data-version="1" viewBox="0 0 1500 156"><g data-padding="20"><g transform="translate(10 2.78)scale(.96435)"><rect width="395.577" height="155.94" x="169.15" y="-400.47" fill="none" rx="0" ry="0" transform="translate(483.22 400.5)"/><path fill="#fbfbfb" d="M657.938 93.22v.8q0 13.35 9.77 21.09 9.77 7.75 25.94 7.75t25.61-7.75q9.43-7.74 9.43-19.87t-7.14-18.8q-7.15-6.67-22.91-11.12-15.77-4.45-20.83-8.15-5.05-3.71-5.05-10.11 0-7.08 4.92-11.19t15.3-4.11q10.37 0 15.63 4.79 5.25 4.78 5.25 12.6v.81h12.94v-.81q0-12.4-9.16-20.42-9.17-8.02-24.66-8.02-15.5 0-24.26 7.62-8.76 7.61-8.76 19.07 0 11.45 6.67 17.68 6.67 6.24 22.71 10.89 15.43 4.44 20.99 8.49 5.56 4.04 5.56 10.78 0 7.41-5.73 11.99t-16.51 4.58-16.78-4.44q-6-4.45-6-13.35v-.8Zm80.41 6.74q0 10.78 7.08 16.51 7.07 5.73 17.18 5.73 8.76 0 14.32-3.37t8.05-7.75q.2 2.7.98 5.39.77 2.7 1.71 4.38h12.13v-1.08q-1.21-2.96-1.88-6.84-.68-3.87-.68-8.25V72.34q0-12.13-7.04-18.26-7.04-6.14-19.84-6.14-12.81 0-20.32 6.3t-7.51 14.73v.33h12.46v-.33q0-4.38 3.47-7.72 3.47-3.33 11.56-3.33t11.39 4.01 3.3 10.41v4.85h-16.04q-13.2 0-21.76 6-8.56 5.99-8.56 16.77m12.53-.67q0-6.06 4.85-9.64 4.86-3.57 14.29-3.57h14.69v10.18q0 5.73-6 10.85-5.99 5.12-13.41 5.12-7.41 0-10.91-3.44-3.51-3.44-3.51-9.5m67.34-59.31v80.86h12.54V39.98q0-6.74 3.3-10.1 3.3-3.37 9.37-3.37 1.75 0 3.43.2 1.69.2 3.17.47l.67-10.11q-2.02-.54-4.24-.81-2.23-.27-4.38-.27-11.05 0-17.45 6.14-6.41 6.13-6.41 17.85m-11.52 9.98v9.56h39.42v-9.56h-23.18Zm53.6.01v70.88h12.53V49.97Zm-1.55-21.43q0 3.16 2.02 5.32t5.79 2.16q3.78 0 5.8-2.16t2.02-5.32q0-3.17-2.02-5.33-2.02-2.15-5.8-2.15-3.77 0-5.79 2.15-2.02 2.16-2.02 5.33m28.58 55.78v2.16q0 16.03 9.1 26.21 9.1 10.17 24.32 10.17 15.23 0 24.33-10.17 9.1-10.18 9.1-26.21v-2.16q0-16.04-9.1-26.21-9.1-10.18-24.33-10.18-15.22 0-24.32 10.18-9.1 10.17-9.1 26.21m12.8 2.16v-2.16q0-10.98 5.19-18.56t15.43-7.58q10.25 0 15.43 7.58 5.19 7.58 5.19 18.56v2.16q0 10.98-5.19 18.56-5.18 7.58-15.43 7.58-10.24 0-15.43-7.58t-5.19-18.56m67.95-36.52v70.88h12.54V70.71q2.56-5.12 7.14-8.36 4.58-3.23 10.58-3.23 7 0 10.81 3.67t3.81 12.16v45.89h12.53V75.09q0-14.29-6.37-20.38-6.36-6.1-17.08-6.1-6.74 0-12.29 2.79-5.56 2.8-9.4 7.65h-.41l-.54-9.09ZM604.411 77.53l1.037-1.037c14.573-14.573 14.573-38.275 0-52.848s-38.26-14.544-52.848 0l-1.022 1.051-1.037-1.036c-14.6-14.579-38.248-14.579-52.848 0-14.569 14.598-14.569 38.234 0 52.833l1.051 1.037-1.037 1.037c-14.578 14.6-14.578 38.248 0 52.848 14.608 14.544 38.226 14.544 52.834 0l1.037-1.051 1.036 1.036c14.608 14.544 38.227 14.544 52.834 0 14.544-14.607 14.544-38.226 0-52.833Zm-47.203-49.277c12.057-12.03 31.575-12.03 43.632 0 12.03 12.057 12.03 31.575 0 43.632l-35.02 35.035c-2.68 2.679-3.342 5.861-.145 9.072l1.181 1.152c6.72 6.72 17.616 6.72 24.336 0s6.72-17.615 0-24.336l-1.037-1.036 2.535-2.52 1.036 1.05c8.1 8.118 8.1 21.26 0 29.377-8.12 8.093-21.255 8.093-29.376 0 0 0-.518-.432-1.21-1.123-.633-.648-6.94-7.056.16-14.156l35.02-35.035c10.642-10.663 10.642-27.929 0-38.592-10.663-10.641-27.929-10.641-38.592 0l-1.037 1.051-2.52-2.52Zm29.39 84.312a10.73 10.73 0 0 1-15.134 0l-1.037-1.051 15.12-15.134 1.051 1.036a10.73 10.73 0 0 1 0 15.15m-84.297-84.313c12.057-12.03 31.575-12.03 43.632 0l35.02 35.021-2.52 2.534-35.02-35.02c-10.663-10.642-27.929-10.642-38.592 0-10.642 10.663-10.642 27.928 0 38.592l1.037 1.022-2.52 2.534-1.037-1.036c-12.03-12.058-12.03-31.575 0-43.632m68.112 15.292 1.051-1.036a10.714 10.714 0 0 1 15.134 15.134l-1.036 1.037Zm-55.109 45.922-3.34 3.34c-6.705 6.727-6.705 17.61 0 24.337 6.724 6.712 17.61 6.712 24.335 0l1.037-1.037c5.126-5.126-1.037-10.224-4.003-13.205l-1.944-1.944-9.187-9.201 2.52-2.52 12.24 12.24.95.95c8.986 8.986 2.65 15.494 1.944 16.2l-1.037 1.037c-8.12 8.093-21.256 8.093-29.376 0-8.093-8.12-8.093-21.256 0-29.376l35.021-35.035 2.52 2.52-17.453 17.438Zm2.304 6.912 15.12 15.12-1.022 1.037a10.714 10.714 0 0 1-15.15-15.12Zm33.984-33.998 15.106 15.134-15.12 15.134-15.15-15.12ZM536.3 37.916c-6.794-6.263-17.317-6.048-23.85.485s-6.748 17.057-.486 23.85L513 63.288l-2.52 2.52-1.037-1.036c-8.1-8.122-8.1-21.27 0-29.39 8.12-8.094 21.256-8.094 29.376 0l35.021 35.02-2.534 2.52Zm-3.557 5.616L517.58 58.695l-1.037-1.037a10.714 10.714 0 0 1 15.15-15.134Zm68.112 83.275c-12.057 12.03-31.574 12.03-43.632 0l-1.296-1.167c-.288-.288-2.707-2.692-4.478-6.393a26 26 0 0 1-4.464 6.523l-1.037 1.037c-12.057 12.03-31.575 12.03-43.632 0-12.03-12.057-12.03-31.575 0-43.632l35.021-35.035 2.52 2.534-35.02 35.02c-10.642 10.664-10.642 27.93 0 38.593 10.662 10.641 27.928 10.641 38.591 0l1.095-1.109a18.72 18.72 0 0 0 4.996-11.851l.015-.389a13.82 13.82 0 0 0-4.119-10.166l-5.558-5.559-.533-.576-9.993-9.979 2.52-2.534 13.968 13.968 1.152 1.18a24.5 24.5 0 0 1 4.564 6.15c1.008-1.93 2.448-3.932 4.464-5.934l.188-.216 35.035-35.02c6.262-6.794 6.048-17.318-.485-23.851s-17.057-6.748-23.85-.485l-1.052 1.022-2.52-2.52 1.036-1.037c8.12-8.093 21.256-8.093 29.376 0 8.1 8.117 8.1 21.259 0 29.376l-35.02 35.05-1.095 1.109c-7.013 7.012-4.262 17.05.864 22.176l1.267 1.21c10.664 10.64 27.93 10.64 38.592 0 10.642-10.664 10.642-27.93 0-38.593l-1.036-1.037 2.52-2.534 1.036 1.051c12.03 12.057 12.03 31.575 0 43.632"/></g><path fill="transparent" stroke="transparent" d="M469.5 0h561v156h-561z"/></g></svg>